<svg id="us" data-name="us" xmlns="http://www.w3.org/2000/svg" viewBox="0 0 1008 465.6"><defs><style>.cls-1{fill:#1e3540;}</style></defs><path class="cls-1" d="M552.76,413.72V158.9h78.36v261q0,41.58-11.25,73.26t-32,53.47a172.56,172.56,0,0,1-49.05,35.77,233.89,233.89,0,0,1-61.67,20.1,391.88,391.88,0,0,1-70.86,6.13,413,413,0,0,1-72.56-6.13q-34.43-6.13-62.68-20.1a167.72,167.72,0,0,1-48.72-35.77q-20.44-21.8-31.68-53.47t-11.24-73.26v-261h78.35V413.72q0,51.79,19.76,78.69t53.14,36.8q33.38,9.9,75.63,9.88,40.89,0,73.93-9.88t52.8-36.8Q552.77,465.52,552.76,413.72Z" transform="translate(-179.39 -150.73)"/><path class="cls-1" d="M674,453.24H751.7q2.06,25.22,19.76,45.31t46.67,31.34q28.95,11.24,66.43,11.24,33.38,0,55.19-8.17t32.71-22.48q10.89-14.31,10.9-34.76,0-19.75-12.61-30.66t-39.18-18.39q-26.57-7.49-67.45-15a571.82,571.82,0,0,1-65.41-17,250.2,250.2,0,0,1-56.21-25.89q-24.87-15.66-39.18-38.16T689,276.78q0-36.1,20.11-64.73t60-45q39.84-16.36,97.76-16.36,87.21,0,133.2,39.86t44.63,108.66H969.73q-2.73-42.92-32-61.65t-74.26-18.74q-40.87,0-68.14,14t-27.25,46a40.77,40.77,0,0,0,6.47,22.83q6.48,9.87,21.81,17.71t41.56,15Q864.11,341.51,903,349a521.68,521.68,0,0,1,61.66,15.33q28.95,9.19,50.41,23.84a105.86,105.86,0,0,1,33.73,37.14Q1061,447.8,1061,480.49q0,37.49-19.07,66.44t-58.6,45.64q-39.51,16.7-102.2,16.69-47.68,0-82.78-11.23t-60-29.3q-24.87-18-39.86-39.17t-20.77-41.23Q672,468.25,674,453.24Z" transform="translate(-179.39 -150.73)"/><rect class="cls-1" x="1096.45" y="526.15" width="75.78" height="74.26" transform="translate(-245.45 816.35) rotate(-45)"/></svg>